<svg xmlns="http://www.w3.org/2000/svg" width="400" height="450" viewBox="0 0 400 450">
  <defs>
    <linearGradient id="bg" x1="0" y1="0" x2="1" y2="1">
      <stop offset="0%" stop-color="#0f172a"/>
      <stop offset="100%" stop-color="#1e293b"/>
    </linearGradient>
    <linearGradient id="btn" x1="0" y1="0" x2="1" y2="0">
      <stop offset="0%" stop-color="#38bdf8"/>
      <stop offset="100%" stop-color="#6366f1"/>
    </linearGradient>
  </defs>
  <rect width="400" height="450" fill="url(#bg)"/>
  <!-- phone frame -->
  <rect x="60" y="16" width="280" height="418" rx="28" fill="#0b1220" stroke="#334155" stroke-width="2"/>
  <rect x="160" y="26" width="80" height="6" rx="3" fill="#334155"/>
  <!-- status bar -->
  <rect x="86" y="44" width="30" height="8" rx="4" fill="#475569"/>
  <rect x="290" y="44" width="30" height="8" rx="4" fill="#475569"/>
  <!-- notification cards -->
  <rect x="84" y="74" width="232" height="92" rx="12" fill="#1e293b" stroke="#334155"/>
  <circle cx="108" cy="104" r="14" fill="#22c55e"/>
  <text x="108" y="109" text-anchor="middle" font-family="Segoe UI, Arial" font-size="14" fill="#0f172a">¥</text>
  <rect x="132" y="92" width="120" height="9" rx="4" fill="#e2e8f0"/>
  <rect x="132" y="110" width="150" height="7" rx="4" fill="#475569"/>
  <rect x="132" y="126" width="90" height="7" rx="4" fill="#475569"/>
  <rect x="132" y="144" width="66" height="14" rx="7" fill="#22c55e" opacity="0.2"/>
  <text x="165" y="155" text-anchor="middle" font-family="Segoe UI, Arial" font-size="9" fill="#22c55e">+120.00</text>
  <rect x="84" y="178" width="232" height="92" rx="12" fill="#1e293b" stroke="#334155"/>
  <circle cx="108" cy="208" r="14" fill="#ef4444"/>
  <text x="108" y="213" text-anchor="middle" font-family="Segoe UI, Arial" font-size="14" fill="#0f172a">¥</text>
  <rect x="132" y="196" width="130" height="9" rx="4" fill="#e2e8f0"/>
  <rect x="132" y="214" width="110" height="7" rx="4" fill="#475569"/>
  <rect x="132" y="230" width="100" height="7" rx="4" fill="#475569"/>
  <rect x="132" y="248" width="66" height="14" rx="7" fill="#ef4444" opacity="0.2"/>
  <text x="165" y="259" text-anchor="middle" font-family="Segoe UI, Arial" font-size="9" fill="#ef4444">-35.00</text>
  <rect x="84" y="282" width="232" height="92" rx="12" fill="#1e293b" stroke="#334155"/>
  <circle cx="108" cy="312" r="14" fill="#eab308"/>
  <text x="108" y="317" text-anchor="middle" font-family="Segoe UI, Arial" font-size="14" fill="#0f172a">¥</text>
  <rect x="132" y="300" width="110" height="9" rx="4" fill="#e2e8f0"/>
  <rect x="132" y="318" width="140" height="7" rx="4" fill="#475569"/>
  <rect x="132" y="334" width="80" height="7" rx="4" fill="#475569"/>
  <rect x="132" y="352" width="76" height="14" rx="7" fill="#eab308" opacity="0.2"/>
  <text x="170" y="363" text-anchor="middle" font-family="Segoe UI, Arial" font-size="9" fill="#eab308">待确认</text>
  <!-- caption -->
  <text x="200" y="432" text-anchor="middle" font-family="Segoe UI, Arial, sans-serif" font-size="13" fill="#94a3b8">📸 截图占位 · Android 收款通知</text>
</svg>
